# xmcd
#
# Track frame offsets: 
#        150
#        12143
#        23402
#        34739
#        45990
#        59656
#        69622
#        82070
#        93395
#        103047
#        113417
#        123730
#        137112
#        147308
#        160352
#        170725
#        182494
#        194450
#        206923
#        218274
#        228945
#        239904
#        250582
#        261147
#        273862
#
# Disc length: 3785 seconds
#
# Revision: 1
# Processed by: cddbd v1.5.2PL0 Copyright (c) Steve Scherf et al.
# Submitted via: ExactAudioCopyFreeDBPlugin 1.0
#
DISCID=640ec719
DTITLE=Various Artist - Southern Style - New Orleans Blues
DYEAR=2001
DGENRE=Blues
TTITLE0=Fats Domino - I've Got Eyes For You
TTITLE1=Little Bubber - Runnin' Round
TTITLE2=T-Bone Walker - When The Sun Goes Down
TTITLE3=Wee Willie Wayne - Travellin' Mood
TTITLE4=Professor Longhair - Hey Little Girl
TTITLE5=Billy Tate - Single Life
TTITLE6=Smiley Lewis - Too Many Drivers
TTITLE7=Joe Turner with Fats Domino on piano - Lucille
TTITLE8=Snooks Eaglin - Is It True
TTITLE9=Ray Lewis and The Four Bars - When You Were Mine
TTITLE10=Bobby Mitchell and The Toppers - The Wedding Bells Are Ringing
TTITLE11=Dave Bartholomew - Mr. Fool
TTITLE12=Little Sonny Jones - Winehead Baby
TTITLE13=Boo Breeding - Low And Lonesome
TTITLE14=Leonard Lee - Tryin' To Fool Me
TTITLE15=Jimmy Gil - Gather 'round
TTITLE16=Wee Willie Wayne - Vacant Pillow Blues
TTITLE17=Bobby Mitchell and The Toppers - 64 Hours
TTITLE18=Archibald - Great Big Eyes
TTITLE19=Joe Turner with Fats Domino on piano - Love My Baby
TTITLE20=Smiley Lewis - Gumbo Blues
TTITLE21=Bobby Marchan - Have Mercy
TTITLE22=T-Bone Walker - Pony Tail
TTITLE23=Professor Longhair - Hey Now Baby
TTITLE24=Fats Domino - Stay Away
EXTD=
EXTT0=
EXTT1=
EXTT2=
EXTT3=
EXTT4=
EXTT5=
EXTT6=
EXTT7=
EXTT8=
EXTT9=
EXTT10=
EXTT11=
EXTT12=
EXTT13=
EXTT14=
EXTT15=
EXTT16=
EXTT17=
EXTT18=
EXTT19=
EXTT20=
EXTT21=
EXTT22=
EXTT23=
EXTT24=
PLAYORDER=
